<?xml version="1.0" encoding="utf-8"?>
<!-- Generator: Adobe Illustrator 28.2.0, SVG Export Plug-In . SVG Version: 6.00 Build 0)  -->
<svg version="1.1" id="Layer_13" xmlns="http://www.w3.org/2000/svg" xmlns:xlink="http://www.w3.org/1999/xlink" x="0px" y="0px"
	 viewBox="0 0 512 512" style="enable-background:new 0 0 512 512;" xml:space="preserve">
<style type="text/css">
	.st0{fill:#9A7B2C;}
	.st1{fill:url(#SVGID_1_);}
	.st2{fill:url(#SVGID_00000062897025769381933670000010666006850621211280_);}
	.st3{fill:url(#SVGID_00000072243768761994585670000007281840719161803158_);}
</style>
<path class="st0" d="M371.7,156.1c-5,0-9.9-2-13.4-5.6L272,64.3c-7.4-7.4-7.4-19.5,0.1-26.9c7.4-7.4,19.4-7.4,26.8,0l86.3,86.3
	c7.4,7.4,7.4,19.4,0,26.9C381.6,154.1,376.8,156.1,371.7,156.1L371.7,156.1z"/>
<path class="st0" d="M379.7,270c-5,0-9.9-2-13.4-5.6L245.9,144c-7.4-7.4-7.4-19.5,0.1-26.9c7.4-7.4,19.4-7.4,26.8,0l120.4,120.4
	c7.4,7.4,7.4,19.4,0,26.9C389.6,268,384.8,270,379.7,270L379.7,270z"/>
<path class="st0" d="M251.6,398.2c-5,0-9.9-2-13.4-5.6L117.7,272.2c-7.4-7.4-7.4-19.5,0.1-26.9c7.4-7.4,19.4-7.4,26.8,0L265,365.8
	c7.4,7.4,7.4,19.5,0,26.9C261.4,396.2,256.6,398.2,251.6,398.2L251.6,398.2z"/>
<path class="st0" d="M225.6,478.8c-5,0-9.9-2-13.4-5.6l-86.3-86.3c-7.4-7.4-7.4-19.5,0-26.9c7.4-7.4,19.5-7.4,26.9,0l86.3,86.3
	c7.4,7.4,7.4,19.4,0,26.9C235.5,476.7,230.6,478.7,225.6,478.8L225.6,478.8z"/>
<linearGradient id="SVGID_1_" gradientUnits="userSpaceOnUse" x1="209.4831" y1="261.6772" x2="322.3983" y2="247.7132">
	<stop  offset="0.4241" style="stop-color:#AF8B36"/>
	<stop  offset="1" style="stop-color:#745B1C"/>
</linearGradient>
<path class="st1" d="M199.2,511.5c-10.5,0-19-8.5-19-19c0-5.1,2-9.9,5.6-13.5c51.5-51.5,70.1-131.3,51.1-219
	C215,159.4,237.4,66.8,298.1,6.1c7.4-7.4,19.5-7.4,26.9,0c7.4,7.4,7.4,19.5,0,26.9c-51.4,51.4-70,131.2-51,219
	c21.8,100.6-0.6,193.2-61.3,253.9C209.1,509.5,204.2,511.5,199.2,511.5z"/>
<linearGradient id="SVGID_00000166646614279582994960000001177324403200970906_" gradientUnits="userSpaceOnUse" x1="-0.2032" y1="284.7153" x2="209.8007" y2="284.7153">
	<stop  offset="0.2643" style="stop-color:#AF8B36"/>
	<stop  offset="1" style="stop-color:#745B1C"/>
</linearGradient>
<path style="fill:url(#SVGID_00000166646614279582994960000001177324403200970906_);" d="M191,229.2c-36.5-0.6-70.9,5-102.3,16.6
	c-15.3,5.6-29.9,12.8-43.8,21.4c-2.7,0.9-5.2,2.5-7.3,4.5c-0.2,0.2-0.4,0.4-0.6,0.6c-11.4,7.8-22,16.6-31.7,26.3
	c-7.4,7.4-7.5,19.4-0.1,26.9s19.4,7.5,26.9,0.1c0,0,0,0,0.1-0.1c5.4-5.4,11.1-10.4,17.1-15.1l24.3,24.3c7.4,7.4,19.5,7.4,26.9-0.1
	c7.4-7.4,7.4-19.4,0-26.8l-18.1-18.1c6.3-3.1,12.8-5.9,19.3-8.3c27-10,56.7-14.8,88.5-14.2h0.3c10.5,0.1,19.1-8.3,19.2-18.8
	C209.9,237.9,201.5,229.3,191,229.2L191,229.2z"/>
<linearGradient id="SVGID_00000106149376770446040200000017830746729611802526_" gradientUnits="userSpaceOnUse" x1="302.1993" y1="225.872" x2="471.7269" y2="225.872">
	<stop  offset="0.2643" style="stop-color:#AF8B36"/>
	<stop  offset="1" style="stop-color:#745B1C"/>
</linearGradient>
<path style="fill:url(#SVGID_00000106149376770446040200000017830746729611802526_);" d="M506.6,211.9c7.4-7.4,7.4-19.5-0.1-26.9
	c-7.4-7.4-19.4-7.4-26.8,0c-5.6,5.6-11.5,10.7-17.7,15.6l-24.7-24.7c-7.4-7.4-19.5-7.4-26.9,0.1c-7.4,7.4-7.4,19.4,0,26.8l18.4,18.4
	c-6.1,3-12.3,5.6-18.7,8c-27,10-56.7,14.8-88.5,14.2h-0.3c-10.5-0.1-19.1,8.3-19.2,18.8c-0.1,10.5,8.3,19.1,18.8,19.2l0,0
	c1.8,0,3.6,0,5.5,0c34.5,0,67-5.6,96.9-16.6c16.4-6,32.1-13.9,46.8-23.4l0.4-0.2C483.6,232.7,495.6,222.9,506.6,211.9z"/>
</svg>
